<svg xmlns="http://www.w3.org/2000/svg" viewBox="0 0 143.55 143.55">
  <defs>
    <style>
      .cls-1 {
        fill: none;
      }

      .cls-2 {
        fill: #1c1c1c;
      }
    </style>
  </defs>
  <title>Jomor Design Logo</title>
  <g id="Layer_2" data-name="Layer 2">
    <g id="Layer_1-2" data-name="Layer 1">
      <g>
        <rect class="cls-1" width="143.55" height="143.55" rx="71.78" ry="71.78"/>
        <g>
          <path class="cls-2" d="M87.56,54.26a2.68,2.68,0,0,1-5.35,0,2.65,2.65,0,0,1,.48-1.54,7.55,7.55,0,0,0-4.29,2.12.84.84,0,0,1-1.18-1.19c2.5-2.5,6.12-3.3,10.49-2.32a22.45,22.45,0,0,1,5.76,2.19A.84.84,0,0,1,92.63,55a21.63,21.63,0,0,0-5.41-2A2.67,2.67,0,0,1,87.56,54.26Zm-2.68,1a1,1,0,1,0,0-2,1,1,0,0,0-1,1h0a1,1,0,0,0,1,1Z"/>
          <path class="cls-2" d="M50.08,53.54a22.45,22.45,0,0,1,5.76-2.19c4.36-1,8-.18,10.49,2.32a.84.84,0,0,1-1.19,1.19,7.51,7.51,0,0,0-4.28-2.11,2.67,2.67,0,1,1-4.54.21,21.71,21.71,0,0,0-5.4,2,.84.84,0,0,1-.84-1.44Zm8.58,1.72a1,1,0,1,0,0-2,1,1,0,0,0-1,1h0A1,1,0,0,0,58.66,55.26Z"/>
          <path class="cls-2" d="M87,47.49l-8.5,1.36a.84.84,0,0,1-.27-1.66L87,45.79a.81.81,0,0,1,.59.12l7.08,4.56A.83.83,0,0,1,95,51.62a.84.84,0,0,1-1.16.26Z"/>
          <path class="cls-2" d="M49,50.46l7.09-4.56a.79.79,0,0,1,.58-.12l8.82,1.4a.84.84,0,1,1-.26,1.66l-8.5-1.36-6.83,4.39a.83.83,0,0,1-1.14-.3A.82.82,0,0,1,49,50.46Z"/>
          <path class="cls-2" d="M78.51,70A.84.84,0,0,1,78,71l-2.35.73-2.22,2.42a.86.86,0,0,1-.62.27h-2a.82.82,0,0,1-.61-.27l-2.22-2.43L65.59,71a.84.84,0,0,1,.5-1.6l2.56.8a.75.75,0,0,1,.37.23l2.12,2.32H72.4l2.12-2.32a.8.8,0,0,1,.37-.23l2.56-.8a.83.83,0,0,1,1,.54Z"/>
          <path class="cls-2" d="M37.93,59.31l3.62-3.63a89,89,0,0,1,.26-9.38c.75-8.79,2.82-14.93,6.13-18.25,7.66-7.66,16.12-11.87,23.83-11.87h0c7.71,0,16.17,4.21,23.83,11.87,3.32,3.33,5.39,9.46,6.13,18.25a86.35,86.35,0,0,1,.26,9.38l3.63,3.64a.84.84,0,0,1,.22.76l-1.51,7.25.18,7.65a.86.86,0,0,1-.49.78l-1.82.83.09,2.74a.86.86,0,0,1-.11.45l-1.24,2.14.93,9a.93.93,0,0,1,0,.29l-1.58,6.48,2,9.08a.85.85,0,0,1-.14.67l-4.35,6L94.41,121a.84.84,0,0,1-.56.48L72,127.35a.82.82,0,0,1-.44,0L49.7,121.51a.83.83,0,0,1-.55-.48l-3.33-7.63-4.36-6a.83.83,0,0,1-.14-.67l2-9.07L41.7,91.18a.86.86,0,0,1,0-.28l.93-9-1.24-2.13a.79.79,0,0,1-.11-.45l.09-2.74-1.83-.83A.85.85,0,0,1,39,75l.17-7.64-1.5-7.25A.84.84,0,0,1,37.93,59.31Zm2.93,7.78a.58.58,0,0,1,0,.19l-.16,7.18.68.31.27-8.34a.84.84,0,0,1,1.65-.17L48.46,87.7l11.95,9.41.07.06L63.35,100l4.42-2.35a.85.85,0,0,1,.68,0l3.33,1.22,3.32-1.22a.85.85,0,0,1,.68,0L80.21,100l2.86-2.82.07-.06,12-9.41,5.14-21.43a.84.84,0,0,1,1.66.17l.27,8.34.68-.31-.16-7.18a.58.58,0,0,1,0-.19l1.42-6.91L101.91,58c0,.22,0,.36,0,.42v4a.84.84,0,0,1-1.68,0V58.29c0-.21,1.52-21.75-5.78-29S79,17.85,71.78,17.85h0c-7.26,0-15.3,4-22.64,11.39s-5.81,28.84-5.79,29.05v4.09a.84.84,0,0,1-1.68,0v-4c0-.06,0-.2,0-.41l-2.21,2.21Z"/>
          <path class="cls-2" d="M55.9,82a.86.86,0,0,1,.38-.53l11.59-7.32a.85.85,0,0,1,.94,0l2.47,1.78a.82.82,0,0,1,.32.47l.18.72.18-.72a.83.83,0,0,1,.33-.47l2.46-1.78a.81.81,0,0,1,.93,0l11.59,7.32a.86.86,0,0,1,.38.53l2,9.34a.84.84,0,0,1-1.55.59L84,84.67l-7.44-3.29H67l-7.43,3.29-4.08,7.24a.86.86,0,0,1-.74.43h0a.83.83,0,0,1-.83-.85.75.75,0,0,1,0-.26Z"/>
          <path class="cls-2" d="M60.39,85.3l4-.63h.08l7.23-.44h.11l7.22.44h.08l4,.63A.83.83,0,0,1,83,87a.29.29,0,0,1-.13,0l-4-.62-7.12-.43-7.14.42-4,.63h-.13a.84.84,0,0,1-.13-1.66Z"/>
          <path class="cls-2" d="M65.82,90.43a.84.84,0,0,1,.62-.53l5.17-1a.44.44,0,0,1,.16,0,.5.5,0,0,1,.17,0l5.17,1a.84.84,0,0,1,.62.53l1,2.61a.83.83,0,0,1-.43,1l-6.12,2.77-.17,0a.88.88,0,0,1-.53,0l-6.12-2.77a.83.83,0,0,1-.43-1Z"/>
        </g>
      </g>
    </g>
  </g>
</svg>
