<svg xmlns="http://www.w3.org/2000/svg" viewBox="0 0 194.28 315.91"><title>Monocle-Logo</title><g id="Layer_2" data-name="Layer 2"><g id="Layer_1-2" data-name="Layer 1"><path d="M159.37,105.22a63.5,63.5,0,0,0-16.24-6.17c-12.31-2.76-22.51-.51-29.56,6.54a2.37,2.37,0,0,0,3.33,3.35A21.27,21.27,0,0,1,129,103a7.59,7.59,0,1,0,12.76.79A60.67,60.67,0,0,1,157,109.39a2.4,2.4,0,0,0,2.37-4.17Zm-24.21,4.91a2.82,2.82,0,1,1,2.82-2.82A2.82,2.82,0,0,1,135.16,110.13Z"/><path d="M162.75,96.63,142.8,83.78a2.34,2.34,0,0,0-1.67-.34l-24.71,4a2.37,2.37,0,1,0,.76,4.67l23.95-3.83,19.28,12.29h0a2.37,2.37,0,0,0,3.27-.74A2.34,2.34,0,0,0,162.75,96.63Z"/><path d="M80.52,87.36l-24.86-4a2.24,2.24,0,0,0-1.63.34l-20,12.85a2.35,2.35,0,0,0-.68,3.16,2.37,2.37,0,0,0,3.22.81L55.83,88.2l24,3.83a2.36,2.36,0,0,0,.73-4.67Z"/><path d="M80.8,154.48l6.79,2,6.2,6.85a2.39,2.39,0,0,0,1.72.76h5.64a2.43,2.43,0,0,0,1.74-.76l6.26-6.82,6.62-2.06a2.37,2.37,0,0,0,1.44-2.82l-.17-.17a2.34,2.34,0,0,0-2.82-1.52L107,152.23a2.34,2.34,0,0,0-1.05.64l-6,6.54H96.44l-6-6.54a2.29,2.29,0,0,0-1-.64L82.21,150a2.37,2.37,0,0,0-1.41,4.51Z"/><path d="M193.6,121.57l-10.23-10.26a242.8,242.8,0,0,0-.73-26.43c-2.08-24.77-7.92-42-17.27-51.43C143.78,11.86,119.94,0,98.22,0S52.65,11.86,31.06,33.45C21.74,42.8,15.9,60.11,13.79,84.88a250.61,250.61,0,0,0-.73,26.43L2.86,121.54a2.44,2.44,0,0,0-.74,2.25l4.23,20.43-.48,21.53a2.43,2.43,0,0,0,1.52,2.12l5.16,2.33-.25,7.73a2.15,2.15,0,0,0,.31,1.26l3.49,6-2.62,25.36a1.76,1.76,0,0,0,0,.79l1.9,7.6C5,254.37-4.63,287.8,2.4,314.86a1.4,1.4,0,0,0,1.36,1.05,1.34,1.34,0,0,0,.35,0,1.41,1.41,0,0,0,1-1.72C-1.4,289,7,257.68,16.73,224.36L18,229.61l-5.63,25.56a2.37,2.37,0,0,0,.39,1.88L25.09,274l9.38,21.5A2.36,2.36,0,0,0,36,296.82l61.6,16.45a2.18,2.18,0,0,0,1.24,0l61.58-16.54a2.36,2.36,0,0,0,1.57-1.35l9.56-21.31,12.26-16.9a2.39,2.39,0,0,0,.39-1.89l-5.64-25.59L183,211.43a2.26,2.26,0,0,0,0-.82l-2.62-25.36,3.49-6a2.17,2.17,0,0,0,.31-1.27l-.25-7.72,5.12-2.34a2.43,2.43,0,0,0,1.39-2.19L190,144.14l4.25-20.43A2.32,2.32,0,0,0,193.6,121.57Zm-8.14,22a1.57,1.57,0,0,0,0,.53l.45,20.24-1.92.87-.76-23.5a2.38,2.38,0,0,0-1.86-2.28,2.36,2.36,0,0,0-2.81,1.8l-14.49,60.39-33.81,26.52-.2.16L122,236.2l-12.48-6.62a2.55,2.55,0,0,0-1.92,0L98.24,233l-9.38-3.44a2.55,2.55,0,0,0-1.92,0L74.49,236.2l-8.09-8-.2-.17L32.53,201.54l-4.39-18.22c5.12-21.12,8.18-41.7,5.2-59.92a.08.08,0,0,0,0,0A5.22,5.22,0,0,0,35.09,122a27,27,0,0,0,53.27-6.31,26.92,26.92,0,0,0-7.42-18.58,2.52,2.52,0,0,0-1.27-.71c-1.59-.34-3.21-.59-4.86-.79a.56.56,0,0,0-.37,1,23.19,23.19,0,0,1,7,7.69c-6.95-6-16.67-7.88-28.16-5.24a63.08,63.08,0,0,0-11.13,3.67c.42-.61.86-1.21,1.33-1.78a.55.55,0,0,0-.66-.85q-2.32,1-4.54,2.23a2.47,2.47,0,0,0-1,1,26.76,26.76,0,0,0-2.92,10.91,5.31,5.31,0,0,0-3.32-1.18,5.36,5.36,0,0,0-.51,10.69v0c2.65,16.21.37,34.47-3.88,53.37L18,141.12a2.37,2.37,0,0,0-4.65.48l-.76,23.5-1.92-.87L11.11,144a1.63,1.63,0,0,0,0-.54L7.17,124.07l6.22-6.22v12.34a2.37,2.37,0,0,0,4.74,0V118.66c-.06-.59-4.37-61,16.31-81.86S77.79,4.71,98.24,4.71s43.32,11.8,63.89,32.23,16.28,81.13,16.28,81.72V130.3a2.37,2.37,0,1,0,4.74,0V117.85l6.31,6.2ZM31.07,121.37a2.86,2.86,0,1,1,2.85-2.86A2.86,2.86,0,0,1,31.07,121.37Zm8.39-12.09a61.27,61.27,0,0,1,15.22-5.64,7.52,7.52,0,1,0,12.79-.59,21.16,21.16,0,0,1,12.06,6,2.39,2.39,0,0,0,3.36,0,2.79,2.79,0,0,0,.41-.58,23.13,23.13,0,1,1-45.08,7.3,22.78,22.78,0,0,1,.89-6.33A2,2,0,0,0,39.46,109.28Zm19-2a2.82,2.82,0,1,1,2.82,2.82A2.82,2.82,0,0,1,58.45,107.31Z"/><path d="M143.08,185.48A2.45,2.45,0,0,0,142,184l-32.66-20.62a2.25,2.25,0,0,0-2.62,0l-6.94,5a2.43,2.43,0,0,0-.93,1.33l-.62,2-.5-2a2.35,2.35,0,0,0-.91-1.33l-7-5a2.35,2.35,0,0,0-2.64,0L54.57,184a2.46,2.46,0,0,0-1.08,1.5l-5.58,26.06a1.84,1.84,0,0,0,0,.74,2.34,2.34,0,0,0,2.34,2.34,2.44,2.44,0,0,0,2.09-1.22L63.84,193l20.93-9.27h26.94l21,9.27,11.67,20.49a2.33,2.33,0,0,0,2.53,1.13h0a2.35,2.35,0,0,0,1.81-2.81Z"/><path d="M130.17,194.78,118.9,193h-.23l-20.34-1.24H98L77.64,193h-.22l-11.27,1.78L66,195a2.37,2.37,0,0,0,.37,4.68h.37L78,197.93l20.12-1.18,20.06,1.07,11.27,1.75a.77.77,0,0,0,.37,0,2.4,2.4,0,1,0,.31-4.79Z"/><path d="M115,209.23a2.4,2.4,0,0,0-1.75-1.49l-14.57-2.82a1.24,1.24,0,0,0-.47,0,1.19,1.19,0,0,0-.46,0L83.2,207.74a2.4,2.4,0,0,0-1.75,1.49l-2.51,7.25a2.33,2.33,0,0,0,1.21,2.81l17.22,7.92a2.7,2.7,0,0,0,1.49,0h.51l17.25-7.8a2.35,2.35,0,0,0,1.21-2.82Z"/></g></g></svg>